# xmcd
#
# Track frame offsets: 
#        150
#        84529
#        137884
#        212880
#        247937
#
# Disc length: 3908 seconds
#
# Revision: 0
# Processed by: cddbd v1.5.2PL0 Copyright (c) Steve Scherf et al.
# Submitted via: ExactAudioCopy v1.0b3
#
DISCID=410f4205
DTITLE=Deuter - Space
DYEAR=2017
DGENRE=New Age
TTITLE0=Endless Horizon
TTITLE1=White Light
TTITLE2=Warmer Sommerabend
TTITLE3=Silent Alchemy
TTITLE4=Resonance Blue
EXTD=
EXTT0=
EXTT1=
EXTT2=
EXTT3=
EXTT4=
PLAYORDER=
